<svg height="19" width="22" viewBox="0 0 19 22" data-testid="icon-pdf"><path d="M4,0 L15.0384989,0 L15.0384989,0 L15.0384989,4.43110571 L19,4.43110571 L19,22 L4,22 C3.44771525,22 3,21.5522847 3,21 L3,1 C3,0.44771525 3.44771525,1.01453063e-16 4,0 Z" fill="#E1E5E6"></path><path d="M15,11 C15.5522847,11 16,11.4477153 16,12 L16,18 C16,18.5522847 15.5522847,19 15,19 L1,19 C0.44771525,19 6.76353751e-17,18.5522847 0,18 L0,12 C-6.76353751e-17,11.4477153 0.44771525,11 1,11 L15,11 Z M4.5234375,13.4208984 L3.36376953,13.4208984 L3.36376953,17 L4.08642578,17 L4.08642578,15.6499023 L4.55761719,15.6499023 C4.88476726,15.6499023 5.134602,15.6328127 5.30712891,15.5986328 C5.43408267,15.5709634 5.55900004,15.5144047 5.68188477,15.4289551 C5.80476949,15.3435054 5.90608684,15.2259122 5.98583984,15.0761719 C6.06559285,14.9264315 6.10546875,14.7417003 6.10546875,14.5219727 C6.10546875,14.2371405 6.03629626,14.0048023 5.89794922,13.8249512 C5.75960217,13.6451 5.58789165,13.5283206 5.3828125,13.4746094 C5.24934829,13.4388019 4.96289282,13.4208984 4.5234375,13.4208984 L4.5234375,13.4208984 Z M8.01708984,13.4208984 L6.69628906,13.4208984 L6.69628906,17 L8.05615234,17 C8.32308076,17 8.53629478,16.9747724 8.69580078,16.9243164 C8.90901799,16.8559567 9.07828713,16.7607428 9.20361328,16.6386719 C9.36962974,16.4775383 9.49739539,16.2667656 9.58691406,16.0063477 C9.66015662,15.7931304 9.69677734,15.5392267 9.69677734,15.2446289 C9.69677734,14.9093408 9.65771523,14.6273612 9.57958984,14.3986816 C9.50146445,14.1700021 9.3875333,13.976726 9.23779297,13.8188477 C9.08805264,13.6609693 8.90820417,13.5511071 8.69824219,13.4892578 C8.54199141,13.4436847 8.3149429,13.4208984 8.01708984,13.4208984 L8.01708984,13.4208984 Z M12.7680664,13.4208984 L10.3144531,13.4208984 L10.3144531,17 L11.0371094,17 L11.0371094,15.4790039 L12.53125,15.4790039 L12.53125,14.8735352 L11.0371094,14.8735352 L11.0371094,14.0263672 L12.7680664,14.0263672 L12.7680664,13.4208984 Z M7.74365234,14.0263672 C8.03825017,14.0263672 8.2360021,14.0377603 8.33691406,14.0605469 C8.47200588,14.0898439 8.58349565,14.1459957 8.67138672,14.2290039 C8.75927778,14.3120121 8.82763647,14.4275709 8.87646484,14.5756836 C8.92529321,14.7237963 8.94970703,14.9361965 8.94970703,15.2128906 C8.94970703,15.4895847 8.92529321,15.7080884 8.87646484,15.8684082 C8.82763647,16.028728 8.76456744,16.1438799 8.68725586,16.2138672 C8.60994427,16.2838545 8.5126959,16.3334959 8.39550781,16.362793 C8.30598914,16.3855795 8.16032002,16.3969727 7.95849609,16.3969727 L7.95849609,16.3969727 L7.41894531,16.3969727 L7.41894531,14.0263672 Z M4.43554688,14.0263672 C4.69596484,14.0263672 4.86930295,14.0345051 4.95556641,14.0507812 C5.07275449,14.0719402 5.16959597,14.1248368 5.24609375,14.2094727 C5.32259153,14.2941085 5.36083984,14.4015293 5.36083984,14.5317383 C5.36083984,14.6375331 5.33357775,14.7303056 5.27905273,14.8100586 C5.22452772,14.8898116 5.14925178,14.9484048 5.05322266,14.9858398 C4.95719353,15.0232749 4.76676575,15.0419922 4.48193359,15.0419922 L4.48193359,15.0419922 L4.08642578,15.0419922 L4.08642578,14.0263672 Z" fill="#CC0000"></path><polygon fill="#AFB9BF" points="15.0384989 4.54747351e-13 19 4.43110571 15.0384989 4.43110571"></polygon></svg>